<?xml version="1.0" encoding="UTF-8" standalone="no"?>
<!-- Created with Inkscape (http://www.inkscape.org/) -->

<svg
   xmlns:dc="http://purl.org/dc/elements/1.1/"
   xmlns:cc="http://creativecommons.org/ns#"
   xmlns:rdf="http://www.w3.org/1999/02/22-rdf-syntax-ns#"
   xmlns:svg="http://www.w3.org/2000/svg"
   xmlns="http://www.w3.org/2000/svg"
   xmlns:sodipodi="http://sodipodi.sourceforge.net/DTD/sodipodi-0.dtd"
   xmlns:inkscape="http://www.inkscape.org/namespaces/inkscape"
   id="svg2"
   version="1.1"
   inkscape:version="0.92.3 (2405546, 2018-03-11)"
   xml:space="preserve"
   width="155.7"
   height="182.5"
   viewBox="0 0 155.7 182.5"
   sodipodi:docname="logo.svg"><metadata
     id="metadata8"><rdf:RDF><cc:Work
         rdf:about=""><dc:format>image/svg+xml</dc:format><dc:type
           rdf:resource="http://purl.org/dc/dcmitype/StillImage" /><dc:title></dc:title></cc:Work></rdf:RDF></metadata><defs
     id="defs6"><inkscape:path-effect
       effect="bspline"
       id="path-effect8891"
       is_visible="true"
       weight="33.333333"
       steps="2"
       helper_size="0"
       apply_no_weight="true"
       apply_with_weight="true"
       only_selected="false" /><inkscape:path-effect
       effect="simplify"
       id="path-effect8889"
       is_visible="true"
       steps="1"
       threshold="0.00416667"
       smooth_angles="360"
       helper_size="0"
       simplify_individual_paths="false"
       simplify_just_coalesce="false"
       simplifyindividualpaths="false"
       simplifyJustCoalesce="false" /><inkscape:path-effect
       effect="bspline"
       id="path-effect8885"
       is_visible="true"
       weight="33.333333"
       steps="2"
       helper_size="0"
       apply_no_weight="true"
       apply_with_weight="true"
       only_selected="false" /><inkscape:path-effect
       effect="simplify"
       id="path-effect8883"
       is_visible="true"
       steps="1"
       threshold="0.00416667"
       smooth_angles="360"
       helper_size="0"
       simplify_individual_paths="false"
       simplify_just_coalesce="false"
       simplifyindividualpaths="false"
       simplifyJustCoalesce="false" /><inkscape:path-effect
       effect="spiro"
       id="path-effect8873"
       is_visible="true" /><inkscape:path-effect
       effect="simplify"
       id="path-effect8871"
       is_visible="true"
       steps="1"
       threshold="0.00416667"
       smooth_angles="360"
       helper_size="0"
       simplify_individual_paths="false"
       simplify_just_coalesce="false"
       simplifyindividualpaths="false"
       simplifyJustCoalesce="false" /><inkscape:path-effect
       effect="spiro"
       id="path-effect8863"
       is_visible="true" /><inkscape:path-effect
       effect="simplify"
       id="path-effect8861"
       is_visible="true"
       steps="1"
       threshold="0.00416667"
       smooth_angles="360"
       helper_size="0"
       simplify_individual_paths="false"
       simplify_just_coalesce="false"
       simplifyindividualpaths="false"
       simplifyJustCoalesce="false" /><marker
       inkscape:stockid="Arrow2Send"
       orient="auto"
       refY="0.0"
       refX="0.0"
       id="Arrow2Send"
       style="overflow:visible;"
       inkscape:isstock="true"><path
         id="path4887"
         style="fill-rule:evenodd;stroke-width:0.625;stroke-linejoin:round;stroke:#ff0000;stroke-opacity:1;fill:#ff0000;fill-opacity:1"
         d="M 8.7185878,4.0337352 L -2.2072895,0.016013256 L 8.7185884,-4.0017078 C 6.9730900,-1.6296469 6.9831476,1.6157441 8.7185878,4.0337352 z "
         transform="scale(0.3) rotate(180) translate(-2.3,0)" /></marker><marker
       inkscape:isstock="true"
       style="overflow:visible;"
       id="marker7831"
       refX="0.0"
       refY="0.0"
       orient="auto"
       inkscape:stockid="Arrow2Mend"><path
         transform="scale(0.6) rotate(180) translate(0,0)"
         d="M 8.7185878,4.0337352 L -2.2072895,0.016013256 L 8.7185884,-4.0017078 C 6.9730900,-1.6296469 6.9831476,1.6157441 8.7185878,4.0337352 z "
         style="fill-rule:evenodd;stroke-width:0.625;stroke-linejoin:round;stroke:#ff0000;stroke-opacity:1;fill:#ff0000;fill-opacity:1"
         id="path7829" /></marker><marker
       inkscape:isstock="true"
       style="overflow:visible;"
       id="marker7767"
       refX="0.0"
       refY="0.0"
       orient="auto"
       inkscape:stockid="Arrow2Mend"><path
         transform="scale(0.6) rotate(180) translate(0,0)"
         d="M 8.7185878,4.0337352 L -2.2072895,0.016013256 L 8.7185884,-4.0017078 C 6.9730900,-1.6296469 6.9831476,1.6157441 8.7185878,4.0337352 z "
         style="fill-rule:evenodd;stroke-width:0.625;stroke-linejoin:round;stroke:#ff0000;stroke-opacity:1;fill:#ff0000;fill-opacity:1"
         id="path7765" /></marker><marker
       inkscape:isstock="true"
       style="overflow:visible;"
       id="marker7709"
       refX="0.0"
       refY="0.0"
       orient="auto"
       inkscape:stockid="Arrow2Mend"><path
         transform="scale(0.6) rotate(180) translate(0,0)"
         d="M 8.7185878,4.0337352 L -2.2072895,0.016013256 L 8.7185884,-4.0017078 C 6.9730900,-1.6296469 6.9831476,1.6157441 8.7185878,4.0337352 z "
         style="fill-rule:evenodd;stroke-width:0.625;stroke-linejoin:round;stroke:#ff0000;stroke-opacity:1;fill:#ff0000;fill-opacity:1"
         id="path7707" /></marker><marker
       inkscape:stockid="Arrow2Mend"
       orient="auto"
       refY="0.0"
       refX="0.0"
       id="marker7349"
       style="overflow:visible;"
       inkscape:isstock="true"
       inkscape:collect="always"><path
         id="path7347"
         style="fill-rule:evenodd;stroke-width:0.625;stroke-linejoin:round;stroke:#4d4d4d;stroke-opacity:1;fill:#4d4d4d;fill-opacity:1"
         d="M 8.7185878,4.0337352 L -2.2072895,0.016013256 L 8.7185884,-4.0017078 C 6.9730900,-1.6296469 6.9831476,1.6157441 8.7185878,4.0337352 z "
         transform="scale(0.6) rotate(180) translate(0,0)" /></marker><marker
       inkscape:stockid="Arrow1Mend"
       orient="auto"
       refY="0.0"
       refX="0.0"
       id="Arrow1Mend"
       style="overflow:visible;"
       inkscape:isstock="true"><path
         id="path4863"
         d="M 0.0,0.0 L 5.0,-5.0 L -12.5,0.0 L 5.0,5.0 L 0.0,0.0 z "
         style="fill-rule:evenodd;stroke:#000000;stroke-width:1pt;stroke-opacity:1;fill:#000000;fill-opacity:1"
         transform="scale(0.4) rotate(180) translate(10,0)" /></marker><marker
       inkscape:stockid="Arrow2Lend"
       orient="auto"
       refY="0.0"
       refX="0.0"
       id="Arrow2Lend"
       style="overflow:visible;"
       inkscape:isstock="true"><path
         id="path4875"
         style="fill-rule:evenodd;stroke-width:0.625;stroke-linejoin:round;stroke:#000000;stroke-opacity:1;fill:#000000;fill-opacity:1"
         d="M 8.7185878,4.0337352 L -2.2072895,0.016013256 L 8.7185884,-4.0017078 C 6.9730900,-1.6296469 6.9831476,1.6157441 8.7185878,4.0337352 z "
         transform="scale(1.1) rotate(180) translate(1,0)" /></marker><marker
       inkscape:stockid="Arrow2Mend"
       orient="auto"
       refY="0.0"
       refX="0.0"
       id="Arrow2Mend"
       style="overflow:visible;"
       inkscape:isstock="true"
       inkscape:collect="always"><path
         id="path4881"
         style="fill-rule:evenodd;stroke-width:0.625;stroke-linejoin:round;stroke:#ff0000;stroke-opacity:1;fill:#ff0000;fill-opacity:1"
         d="M 8.7185878,4.0337352 L -2.2072895,0.016013256 L 8.7185884,-4.0017078 C 6.9730900,-1.6296469 6.9831476,1.6157441 8.7185878,4.0337352 z "
         transform="scale(0.6) rotate(180) translate(0,0)" /></marker><marker
       inkscape:stockid="TriangleOutL"
       orient="auto"
       refY="0.0"
       refX="0.0"
       id="TriangleOutL"
       style="overflow:visible"
       inkscape:isstock="true"><path
         id="path4996"
         d="M 5.77,0.0 L -2.88,5.0 L -2.88,-5.0 L 5.77,0.0 z "
         style="fill-rule:evenodd;stroke:#000000;stroke-width:1pt;stroke-opacity:1;fill:#000000;fill-opacity:1"
         transform="scale(0.8)" /></marker><clipPath
       clipPathUnits="userSpaceOnUse"
       id="clipPath16"><path
         d="m 2.422,38.688 0,68.945 59.858,34.478 59.859,-34.478 0,-68.945 L 62.28,4.211 2.422,38.688 Z"
         id="path18"
         inkscape:connector-curvature="0" /></clipPath><radialGradient
       fx="0"
       fy="0"
       cx="0"
       cy="0"
       r="1"
       gradientUnits="userSpaceOnUse"
       gradientTransform="matrix(64.567177,0,0,-64.564835,65.073593,36.61673)"
       spreadMethod="pad"
       id="radialGradient24"><stop
         style="stop-opacity:1;stop-color:#cf8484"
         offset="0"
         id="stop26" /><stop
         style="stop-opacity:1;stop-color:#b02626"
         offset="1"
         id="stop28" /></radialGradient><clipPath
       clipPathUnits="userSpaceOnUse"
       id="clipPath44"><path
         d="m 0,146 124.56,0 0,-146 L 0,0 0,146 Z"
         id="path46"
         inkscape:connector-curvature="0" /></clipPath><clipPath
       clipPathUnits="userSpaceOnUse"
       id="clipPath196"><path
         d="m 79.288,86.078 c -1.013,0 -1.843,-0.83 -1.843,-1.843 l 0,0 c 0,-1.015 0.83,-1.844 1.843,-1.844 l 0,0 10.058,0 c 1.013,0 1.843,0.829 1.843,1.844 l 0,0 c 0,1.013 -0.83,1.843 -1.843,1.843 l 0,0 -10.058,0 z m -15.365,0 c -1.014,0 -1.844,-0.83 -1.844,-1.843 l 0,0 c 0,-1.015 0.83,-1.844 1.844,-1.844 l 0,0 8.964,0 c 1.015,0 1.845,0.829 1.845,1.844 l 0,0 c 0,1.013 -0.83,1.843 -1.845,1.843 l 0,0 -8.964,0 z m -17.551,0 c -1.014,0 -1.843,-0.83 -1.843,-1.843 l 0,0 c 0,-1.015 0.829,-1.844 1.843,-1.844 l 0,0 10.058,0 c 1.013,0 1.843,0.829 1.843,1.844 l 0,0 c 0,1.013 -0.83,1.843 -1.843,1.843 l 0,0 -10.058,0 z m -11.081,0 c -1.014,0 -1.844,-0.83 -1.844,-1.843 l 0,0 c 0,-1.015 0.83,-1.844 1.844,-1.844 l 0,0 4.681,0 c 1.014,0 1.844,0.829 1.844,1.844 l 0,0 c 0,1.013 -0.83,1.843 -1.844,1.843 l 0,0 -4.681,0 z m 42.971,-6.399 c -0.45,0 -0.817,-0.368 -0.817,-0.817 l 0,0 c 0,-0.449 0.367,-0.818 0.817,-0.818 l 0,0 11.987,0 c 0.45,0 0.817,0.369 0.817,0.818 l 0,0 c 0,0.449 -0.367,0.817 -0.817,0.817 l 0,0 -11.987,0 z m -15.038,0 c -0.449,0 -0.817,-0.368 -0.817,-0.817 l 0,0 c 0,-0.449 0.368,-0.818 0.817,-0.818 l 0,0 10.581,0 c 0.449,0 0.817,0.369 0.817,0.818 l 0,0 c 0,0.449 -0.368,0.817 -0.817,0.817 l 0,0 -10.581,0 z m -12.654,0 c -0.449,0 -0.817,-0.368 -0.817,-0.817 l 0,0 c 0,-0.449 0.368,-0.818 0.817,-0.818 l 0,0 6.836,0 c 0.449,0 0.817,0.369 0.817,0.818 l 0,0 c 0,0.449 -0.368,0.817 -0.817,0.817 l 0,0 -6.836,0 z m -16.382,0 c -0.449,0 -0.817,-0.368 -0.817,-0.817 l 0,0 c 0,-0.449 0.368,-0.818 0.817,-0.818 l 0,0 6.836,0 c 0.449,0 0.817,0.369 0.817,0.818 l 0,0 c 0,0.449 -0.368,0.817 -0.817,0.817 l 0,0 -6.836,0 z m 44.074,-3.12 c -0.45,0 -0.817,-0.367 -0.817,-0.817 l 0,0 c 0,-0.449 0.367,-0.817 0.817,-0.817 l 0,0 11.987,0 c 0.45,0 0.817,0.368 0.817,0.817 l 0,0 c 0,0.45 -0.367,0.817 -0.817,0.817 l 0,0 -11.987,0 z m -15.038,0 c -0.449,0 -0.817,-0.367 -0.817,-0.817 l 0,0 c 0,-0.449 0.368,-0.817 0.817,-0.817 l 0,0 10.581,0 c 0.449,0 0.817,0.368 0.817,0.817 l 0,0 c 0,0.45 -0.368,0.817 -0.817,0.817 l 0,0 -10.581,0 z m -17.878,0 c -0.45,0 -0.817,-0.367 -0.817,-0.817 l 0,0 c 0,-0.449 0.367,-0.817 0.817,-0.817 l 0,0 12.06,0 c 0.449,0 0.817,0.368 0.817,0.817 l 0,0 c 0,0.45 -0.368,0.817 -0.817,0.817 l 0,0 -12.06,0 z m -11.158,0 c -0.449,0 -0.817,-0.367 -0.817,-0.817 l 0,0 c 0,-0.449 0.368,-0.817 0.817,-0.817 l 0,0 6.836,0 c 0.449,0 0.817,0.368 0.817,0.817 l 0,0 c 0,0.45 -0.368,0.817 -0.817,0.817 l 0,0 -6.836,0 z m 44.074,-3.118 c -0.45,0 -0.817,-0.368 -0.817,-0.817 l 0,0 c 0,-0.45 0.367,-0.817 0.817,-0.817 l 0,0 11.987,0 c 0.45,0 0.817,0.367 0.817,0.817 l 0,0 c 0,0.449 -0.367,0.817 -0.817,0.817 l 0,0 -11.987,0 z m -15.038,0 c -0.449,0 -0.817,-0.368 -0.817,-0.817 l 0,0 c 0,-0.45 0.368,-0.817 0.817,-0.817 l 0,0 10.581,0 c 0.449,0 0.817,0.367 0.817,0.817 l 0,0 c 0,0.449 -0.368,0.817 -0.817,0.817 l 0,0 -10.581,0 z m -6.352,0 c -0.45,0 -0.817,-0.368 -0.817,-0.817 l 0,0 c 0,-0.45 0.367,-0.817 0.817,-0.817 l 0,0 0.534,0 c 0.449,0 0.817,0.367 0.817,0.817 l 0,0 c 0,0.449 -0.368,0.817 -0.817,0.817 l 0,0 -0.534,0 z m -22.684,0 c -0.449,0 -0.817,-0.368 -0.817,-0.817 l 0,0 c 0,-0.45 0.368,-0.817 0.817,-0.817 l 0,0 6.836,0 c 0.449,0 0.817,0.367 0.817,0.817 l 0,0 c 0,0.449 -0.368,0.817 -0.817,0.817 l 0,0 -6.836,0 z m 44.074,-3.119 c -0.45,0 -0.817,-0.368 -0.817,-0.818 l 0,0 c 0,-0.449 0.367,-0.817 0.817,-0.817 l 0,0 11.987,0 c 0.45,0 0.817,0.368 0.817,0.817 l 0,0 c 0,0.45 -0.367,0.818 -0.817,0.818 l 0,0 -11.987,0 z m -10.878,0 c -0.449,0 -0.817,-0.368 -0.817,-0.818 l 0,0 c 0,-0.449 0.368,-0.817 0.817,-0.817 l 0,0 6.421,0 c 0.449,0 0.817,0.368 0.817,0.817 l 0,0 c 0,0.45 -0.368,0.818 -0.817,0.818 l 0,0 -6.421,0 z m -12.68,0 c -0.45,0 -0.817,-0.368 -0.817,-0.818 l 0,0 c 0,-0.449 0.367,-0.817 0.817,-0.817 l 0,0 2.702,0 c 0.449,0 0.817,0.368 0.817,0.817 l 0,0 c 0,0.45 -0.368,0.818 -0.817,0.818 l 0,0 -2.702,0 z m -20.516,0 c -0.449,0 -0.817,-0.368 -0.817,-0.818 l 0,0 c 0,-0.449 0.368,-0.817 0.817,-0.817 l 0,0 6.836,0 c 0.449,0 0.817,0.368 0.817,0.817 l 0,0 c 0,0.45 -0.368,0.818 -0.817,0.818 l 0,0 -6.836,0 z m 44.197,-3.119 c -0.45,0 -0.818,-0.368 -0.818,-0.817 l 0,0 c 0,-0.45 0.368,-0.817 0.818,-0.817 l 0,0 11.987,0 c 0.45,0 0.817,0.367 0.817,0.817 l 0,0 c 0,0.449 -0.367,0.817 -0.817,0.817 l 0,0 -11.987,0 z m -15.051,0 c -0.449,0 -0.817,-0.368 -0.817,-0.817 l 0,0 c 0,-0.45 0.368,-0.817 0.817,-0.817 l 0,0 10.58,0 c 0.449,0 0.818,0.367 0.818,0.817 l 0,0 c 0,0.449 -0.369,0.817 -0.818,0.817 l 0,0 -10.58,0 z m -11.57,0 c -0.45,0 -0.817,-0.368 -0.817,-0.817 l 0,0 c 0,-0.45 0.367,-0.817 0.817,-0.817 l 0,0 5.717,0 c 0.45,0 0.817,0.367 0.817,0.817 l 0,0 c 0,0.449 -0.367,0.817 -0.817,0.817 l 0,0 -5.717,0 z m -17.499,0 c -0.45,0 -0.818,-0.368 -0.818,-0.817 l 0,0 c 0,-0.45 0.368,-0.817 0.818,-0.817 l 0,0 6.834,0 c 0.45,0 0.818,0.367 0.818,0.817 l 0,0 c 0,0.449 -0.368,0.817 -0.818,0.817 l 0,0 -6.834,0 z m 44.12,-3.119 c -0.45,0 -0.818,-0.369 -0.818,-0.818 l 0,0 c 0,-0.449 0.368,-0.817 0.818,-0.817 l 0,0 11.987,0 c 0.45,0 0.817,0.368 0.817,0.817 l 0,0 c 0,0.449 -0.367,0.818 -0.817,0.818 l 0,0 -11.987,0 z m -12.39,0 c -0.449,0 -0.817,-0.369 -0.817,-0.818 l 0,0 c 0,-0.449 0.368,-0.817 0.817,-0.817 l 0,0 7.919,0 c 0.449,0 0.818,0.368 0.818,0.817 l 0,0 c 0,0.449 -0.369,0.818 -0.818,0.818 l 0,0 -7.919,0 z m -8.781,0 c -0.449,0 -0.817,-0.369 -0.817,-0.818 l 0,0 c 0,-0.449 0.368,-0.817 0.817,-0.817 l 0,0 0.267,0 c 0.45,0 0.817,0.368 0.817,0.817 l 0,0 c 0,0.449 -0.367,0.818 -0.817,0.818 l 0,0 -0.267,0 z m -22.949,0 c -0.45,0 -0.818,-0.369 -0.818,-0.818 l 0,0 c 0,-0.449 0.368,-0.817 0.818,-0.817 l 0,0 6.834,0 c 0.45,0 0.818,0.368 0.818,0.817 l 0,0 c 0,0.449 -0.368,0.818 -0.818,0.818 l 0,0 -6.834,0 z m 44.12,-3.119 c -0.45,0 -0.818,-0.368 -0.818,-0.818 l 0,0 c 0,-0.449 0.368,-0.817 0.818,-0.817 l 0,0 11.987,0 c 0.45,0 0.817,0.368 0.817,0.817 l 0,0 c 0,0.45 -0.367,0.818 -0.817,0.818 l 0,0 -11.987,0 z m -14.507,0 c -0.45,0 -0.818,-0.368 -0.818,-0.818 l 0,0 c 0,-0.449 0.368,-0.817 0.818,-0.817 l 0,0 10.036,0 c 0.449,0 0.818,0.368 0.818,0.817 l 0,0 c 0,0.45 -0.369,0.818 -0.818,0.818 l 0,0 -10.036,0 z m -17.064,0 c -0.449,0 -0.817,-0.368 -0.817,-0.818 l 0,0 c 0,-0.449 0.368,-0.817 0.817,-0.817 l 0,0 10.667,0 c 0.45,0 0.817,0.368 0.817,0.817 l 0,0 c 0,0.45 -0.367,0.818 -0.817,0.818 l 0,0 -10.667,0 z m -12.549,0 c -0.45,0 -0.818,-0.368 -0.818,-0.818 l 0,0 c 0,-0.449 0.368,-0.817 0.818,-0.817 l 0,0 6.834,0 c 0.45,0 0.818,0.368 0.818,0.817 l 0,0 c 0,0.45 -0.368,0.818 -0.818,0.818 l 0,0 -6.834,0 z m 44.12,-3.119 c -0.45,0 -0.818,-0.368 -0.818,-0.817 l 0,0 c 0,-0.45 0.368,-0.818 0.818,-0.818 l 0,0 11.987,0 c 0.45,0 0.817,0.368 0.817,0.818 l 0,0 c 0,0.449 -0.367,0.817 -0.817,0.817 l 0,0 -11.987,0 z m -15.051,0 c -0.449,0 -0.817,-0.368 -0.817,-0.817 l 0,0 c 0,-0.45 0.368,-0.818 0.817,-0.818 l 0,0 10.58,0 c 0.449,0 0.818,0.368 0.818,0.818 l 0,0 c 0,0.449 -0.369,0.817 -0.818,0.817 l 0,0 -10.58,0 z m -11.769,0 c -0.45,0 -0.818,-0.368 -0.818,-0.817 l 0,0 c 0,-0.45 0.368,-0.818 0.818,-0.818 l 0,0 5.916,0 c 0.45,0 0.817,0.368 0.817,0.818 l 0,0 c 0,0.449 -0.367,0.817 -0.817,0.817 l 0,0 -5.916,0 z m -17.3,0 c -0.45,0 -0.818,-0.368 -0.818,-0.817 l 0,0 c 0,-0.45 0.368,-0.818 0.818,-0.818 l 0,0 6.834,0 c 0.45,0 0.818,0.368 0.818,0.818 l 0,0 c 0,0.449 -0.368,0.817 -0.818,0.817 l 0,0 -6.834,0 z"
         id="path198"
         inkscape:connector-curvature="0" /></clipPath><clipPath
       clipPathUnits="userSpaceOnUse"
       id="clipPath204"><path
         d="m -32768,32767 65535,0 0,-65535 -65535,0 0,65535 z"
         id="path206"
         inkscape:connector-curvature="0" /></clipPath><linearGradient
       x1="0"
       y1="0"
       x2="1"
       y2="0"
       gradientUnits="userSpaceOnUse"
       gradientTransform="matrix(0,29.86697,29.86697,0,62.280125,56.211143)"
       spreadMethod="pad"
       id="linearGradient208"><stop
         style="stop-opacity:0.2;stop-color:#ffffff"
         offset="0"
         id="stop210" /><stop
         style="stop-opacity:1;stop-color:#ffffff"
         offset="1"
         id="stop212" /></linearGradient><mask
       maskUnits="userSpaceOnUse"
       x="0"
       y="0"
       width="1"
       height="1"
       id="mask214"><g
         id="g216"><g
           clip-path="url(#clipPath204)"
           id="g218"><g
             id="g220"><g
               id="g222"><path
                 d="m -32768,32767 65535,0 0,-65535 -65535,0 0,65535 z"
                 style="fill:url(#linearGradient208);stroke:none"
                 id="path224"
                 inkscape:connector-curvature="0" /></g></g></g></g></mask><linearGradient
       x1="0"
       y1="0"
       x2="1"
       y2="0"
       gradientUnits="userSpaceOnUse"
       gradientTransform="matrix(0,29.86697,29.86697,0,62.280125,56.211143)"
       spreadMethod="pad"
       id="linearGradient230"><stop
         style="stop-opacity:1;stop-color:#ffffff"
         offset="0"
         id="stop232" /><stop
         style="stop-opacity:1;stop-color:#ffffff"
         offset="1"
         id="stop234" /></linearGradient><clipPath
       clipPathUnits="userSpaceOnUse"
       id="clipPath242"><path
         d="m 0,146 124.56,0 0,-146 L 0,0 0,146 Z"
         id="path244"
         inkscape:connector-curvature="0" /></clipPath></defs><sodipodi:namedview
     pagecolor="#ffffff"
     bordercolor="#666666"
     borderopacity="1"
     objecttolerance="10"
     gridtolerance="10"
     guidetolerance="10"
     inkscape:pageopacity="0"
     inkscape:pageshadow="2"
     inkscape:window-width="1735"
     inkscape:window-height="1032"
     id="namedview4"
     showgrid="false"
     inkscape:zoom="3.5131664"
     inkscape:cx="67.143087"
     inkscape:cy="99.020268"
     inkscape:window-x="105"
     inkscape:window-y="13"
     inkscape:window-maximized="0"
     inkscape:current-layer="layer2"
     inkscape:snap-grids="false"
     inkscape:snap-to-guides="false"
     inkscape:snap-nodes="false"
     inkscape:snap-others="false"
     inkscape:snap-global="false" /><g
     inkscape:groupmode="layer"
     id="layer4"
     inkscape:label="Background"
     style="display:inline"><g
       transform="matrix(1.25,0,0,-1.25,-1.8501828,183.14045)"
       clip-path="url(#clipPath16)"
       id="g14"
       inkscape:label="g14"
       style="display:inline;fill:#3399cc;fill-opacity:1"><g
         id="g20"
         style="fill:#3399cc;fill-opacity:1"><g
           id="g22"
           style="fill:#3399cc;fill-opacity:1"><path
             inkscape:connector-curvature="0"
             id="path30"
             style="fill:#3399cc;fill-opacity:1;stroke:none"
             d="m 2.422,38.688 v 68.945 l 59.858,34.478 59.859,-34.478 V 38.688 L 62.28,4.211 Z" /></g></g></g></g><g
     id="g10"
     inkscape:groupmode="layer"
     inkscape:label="Border"
     transform="matrix(1.25,0,0,-1.25,0,182.5)"
     style="display:inline"><g
       id="g32"
       transform="translate(0,109.0332)"
       inkscape:export-filename="/Users/Luke/Downloads/title.png"
       inkscape:export-xdpi="300"
       inkscape:export-ydpi="300"><path
         d="m 0,0 v -71.745 l 62.28,-35.872 62.28,35.872 V 0 L 62.28,35.872 Z M 4.844,-68.945 V -2.8 L 62.28,30.282 119.716,-2.8 V -68.945 L 62.28,-102.027 Z"
         style="fill:#e0acac;fill-opacity:1;fill-rule:nonzero;stroke:none"
         id="path34"
         inkscape:connector-curvature="0" /></g></g><g
     inkscape:groupmode="layer"
     id="layer3"
     inkscape:label="EUROCONTROL"
     style="display:inline"><g
       transform="matrix(1.25,0,0,-1.25,0,182.5)"
       id="g238"><g
         id="g240"
         clip-path="url(#clipPath242)"><text
   transform="matrix(0.86677474,0.49869985,0.49869985,-0.86677474,61.7652,8.9448)"
   style="font-style:normal;font-variant:normal;font-weight:normal;font-stretch:normal;font-size:6.4000001px;line-height:0%;font-family:'Aller Light';-inkscape-font-specification:'Aller Light, Normal';font-variant-ligatures:normal;font-variant-caps:normal;font-variant-numeric:normal;font-feature-settings:normal;text-align:start;writing-mode:lr-tb;text-anchor:start;fill:#ffffff;fill-opacity:1;fill-rule:nonzero;stroke:none"
   id="text246"
   inkscape:label="text246"><tspan
     sodipodi:role="line"
     id="tspan3997"
     x="0"
     y="0">www.eurocontrol.int</tspan></text>

</g></g></g><g
     inkscape:groupmode="layer"
     id="layer2"
     inkscape:label="Logo"
     style="display:inline"><path
       style="display:none;fill:#ff0000;fill-opacity:1;fill-rule:evenodd;stroke:#ff0000;stroke-width:0.63295859px;stroke-linecap:butt;stroke-linejoin:miter;stroke-opacity:1;marker-end:url(#Arrow2Mend)"
       d="M 77.850625,91.04875 115.74721,62.331707"
       id="path4852"
       inkscape:connector-curvature="0"
       inkscape:connector-type="polyline" /><ellipse
       style="fill:#3399cc;fill-opacity:1;stroke:#000002;stroke-width:0.79743361;stroke-miterlimit:4;stroke-dasharray:none;stroke-dashoffset:0;stroke-opacity:1"
       id="path4826"
       cx="78.689293"
       cy="106.99499"
       rx="52.792835"
       ry="37.652241" /><path
       style="display:inline;opacity:1;fill:#4d4d4d;fill-rule:evenodd;stroke:#4d4d4d;stroke-width:0.72056454;stroke-linecap:butt;stroke-linejoin:miter;stroke-miterlimit:4;stroke-dasharray:2.88225815, 1.44112908;stroke-dashoffset:0;stroke-opacity:1;marker-end:url(#marker7349)"
       d="M 78.757744,106.66689 114.85713,80.902794"
       id="path7275"
       inkscape:connector-curvature="0"
       inkscape:connector-type="polyline" /><path
       style="fill:#ff0000;fill-rule:evenodd;stroke:#ff0000;stroke-width:1.8;stroke-linecap:butt;stroke-linejoin:miter;stroke-opacity:1;marker-end:url(#Arrow2Send);stroke-miterlimit:4;stroke-dasharray:none"
       d="M 115.95944,80.061549 127.89688,62.587911"
       id="path7699"
       inkscape:connector-curvature="0"
       inkscape:connector-type="polyline" /><path
       style="fill:none;stroke:#000000;stroke-width:0.72936004;stroke-linecap:butt;stroke-linejoin:miter;stroke-miterlimit:4;stroke-dasharray:2.91744, 1.45872;stroke-dashoffset:0;stroke-opacity:1"
       d="M 115.80381,80.220998 C 96.427098,106.34496 96.427098,106.34496 96.427098,106.34496"
       id="path8865"
       inkscape:connector-curvature="0" /><path
       style="fill:none;stroke:#000000;stroke-width:0.96606892;stroke-linecap:butt;stroke-linejoin:miter;stroke-miterlimit:4;stroke-dasharray:none;stroke-opacity:1"
       d="m 26.013525,106.86396 c 105.981025,0 105.533825,0 105.533825,0"
       id="path8867"
       inkscape:connector-curvature="0" /><path
       style="fill:none;stroke:#000000;stroke-width:0.69492269;stroke-linecap:butt;stroke-linejoin:miter;stroke-miterlimit:4;stroke-dasharray:none;stroke-opacity:1"
       d="m 78.607446,107.20999 c 0,-37.542378 0,-37.542378 0,-37.542378"
       id="path8875"
       inkscape:connector-curvature="0" /><text
       xml:space="preserve"
       style="font-style:italic;font-variant:normal;font-weight:bold;font-stretch:normal;font-size:13.33333333px;line-height:1.25;font-family:sans-serif;-inkscape-font-specification:'sans-serif, Bold Italic';font-variant-ligatures:normal;font-variant-caps:normal;font-variant-numeric:normal;font-feature-settings:normal;text-align:start;letter-spacing:0px;word-spacing:0px;writing-mode:lr;text-anchor:start;fill:#000000;fill-opacity:1;stroke:none;stroke-width:1.21560001;"
       x="73.071236"
       y="67.245529"
       id="text8879"><tspan
         sodipodi:role="line"
         id="tspan8877"
         x="73.071236"
         y="67.245529"
         style="stroke-width:1.21560001;-inkscape-font-specification:'sans-serif, Bold Italic';font-family:sans-serif;font-weight:bold;font-style:italic;font-stretch:normal;font-variant:normal;font-size:13.33333333px;text-anchor:start;text-align:start;writing-mode:lr;font-variant-ligatures:normal;font-variant-caps:normal;font-variant-numeric:normal;font-feature-settings:normal;">N</tspan></text>
<path
       style="fill:none;stroke:#000000;stroke-width:0.60780001;stroke-linecap:butt;stroke-linejoin:miter;stroke-miterlimit:4;stroke-dasharray:none;stroke-opacity:1"
       d="m 105.36027,72.588299 c 21.06008,15.09239 21.06008,15.09239 21.06008,15.09239"
       id="path8893"
       inkscape:connector-curvature="0" /><rect
       style="opacity:1;fill:none;fill-opacity:1;stroke:#000000;stroke-width:0.45220321;stroke-linecap:butt;stroke-linejoin:miter;stroke-miterlimit:0;stroke-dasharray:none;stroke-dashoffset:0;stroke-opacity:1;paint-order:stroke markers fill"
       id="rect8911"
       width="5.3461556"
       height="5.1731505"
       x="141.34589"
       y="-3.2037909"
       ry="0.33292818"
       transform="rotate(33.846685)" /><g
       style="display:inline"
       id="g9145"
       transform="matrix(1.3131919,0.76446543,0.76446543,-1.3131919,-61.820348,61.778209)"><g
         clip-path="url(#clipPath242)"
         id="g9143"
         transform="rotate(0.4857635,489.44246,273.57282)"><text
   inkscape:label="text246"
   id="text9141"
   style="font-style:normal;font-variant:normal;font-weight:normal;font-stretch:normal;font-size:8.53333282px;line-height:0%;font-family:'Aller Light';-inkscape-font-specification:'Aller Light, Normal';font-variant-ligatures:normal;font-variant-caps:normal;font-variant-numeric:normal;font-feature-settings:normal;text-align:start;writing-mode:lr-tb;text-anchor:start;fill:#ffffff;fill-opacity:1;fill-rule:nonzero;stroke:none"
   transform="matrix(0.86677474,0.49869985,0.49869985,-0.86677474,0,0)"
   x="61.065269"
   y="31.623199"><tspan
     y="31.623199"
     x="61.065269"
     id="tspan9139"
     sodipodi:role="line">equator</tspan></text>

</g></g><text
       id="text9157"
       y="59.555714"
       x="128.93639"
       style="font-style:normal;font-variant:normal;font-weight:bold;font-stretch:normal;font-size:15.17066669px;line-height:1.25;font-family:sans-serif;-inkscape-font-specification:'sans-serif, Bold';font-variant-ligatures:normal;font-variant-caps:normal;font-variant-numeric:normal;font-feature-settings:normal;text-align:start;letter-spacing:0px;word-spacing:0px;writing-mode:lr-tb;text-anchor:start;display:inline;fill:#ffffff;fill-opacity:1;stroke:none;stroke-width:1.89633596"
       xml:space="preserve"><tspan
         sodipodi:role="line"
         id="tspan9159"
         x="128.93639"
         y="59.555714"
         style="font-style:normal;font-variant:normal;font-weight:bold;font-stretch:normal;font-size:15.17066669px;font-family:sans-serif;-inkscape-font-specification:'sans-serif, Bold';font-variant-ligatures:normal;font-variant-caps:normal;font-variant-numeric:normal;font-feature-settings:normal;text-align:start;writing-mode:lr-tb;text-anchor:start;stroke-width:1.89633596">n</tspan></text>
</g><g
     inkscape:groupmode="layer"
     id="layer1"
     inkscape:label="Title"
     style="display:inline"><text
   transform="scale(1.0000201,0.99997991)"
   style="font-style:normal;font-variant:normal;font-weight:bold;font-stretch:normal;font-size:24px;line-height:0%;font-family:'Aller Light';-inkscape-font-specification:'Aller Light, Bold';font-variant-ligatures:normal;font-variant-caps:normal;font-variant-numeric:normal;font-feature-settings:normal;text-align:start;writing-mode:lr-tb;text-anchor:start;fill:#ffffff;fill-opacity:1;fill-rule:nonzero;stroke:none"
   id="text36"
   x="41.673954"
   y="49.341835"><tspan
     sodipodi:role="line"
     id="tspan3967"
     x="41.673954"
     y="49.341835">nvctr</tspan></text>

</g></svg>