<?xml version="1.0" encoding="UTF-8" standalone="no"?>
<!-- Created with Inkscape (http://www.inkscape.org/) -->

<svg
   xmlns:dc="http://purl.org/dc/elements/1.1/"
   xmlns:cc="http://creativecommons.org/ns#"
   xmlns:rdf="http://www.w3.org/1999/02/22-rdf-syntax-ns#"
   xmlns:svg="http://www.w3.org/2000/svg"
   xmlns="http://www.w3.org/2000/svg"
   xmlns:sodipodi="http://sodipodi.sourceforge.net/DTD/sodipodi-0.dtd"
   xmlns:inkscape="http://www.inkscape.org/namespaces/inkscape"
   width="115.60391mm"
   height="56.39764mm"
   viewBox="0 0 115.60391 56.39764"
   version="1.1"
   id="svg8"
   inkscape:version="0.92.2 5c3e80d, 2017-08-06"
   sodipodi:docname="cross-track.svg"
   inkscape:export-filename="/Users/espin/Documents/cross-track.png"
   inkscape:export-xdpi="119.79931"
   inkscape:export-ydpi="119.79931">
  <defs
     id="defs2" />
  <sodipodi:namedview
     id="base"
     pagecolor="#ffffff"
     bordercolor="#666666"
     borderopacity="1.0"
     inkscape:pageopacity="0.0"
     inkscape:pageshadow="2"
     inkscape:zoom="1"
     inkscape:cx="95.191221"
     inkscape:cy="48.115055"
     inkscape:document-units="mm"
     inkscape:current-layer="layer1"
     showgrid="false"
     inkscape:object-nodes="false"
     inkscape:snap-nodes="false"
     inkscape:window-width="1440"
     inkscape:window-height="855"
     inkscape:window-x="0"
     inkscape:window-y="1"
     inkscape:window-maximized="1"
     fit-margin-top="0"
     fit-margin-left="0"
     fit-margin-right="0"
     fit-margin-bottom="0"
     inkscape:pagecheckerboard="false" />
  <metadata
     id="metadata5">
    <rdf:RDF>
      <cc:Work
         rdf:about="">
        <dc:format>image/svg+xml</dc:format>
        <dc:type
           rdf:resource="http://purl.org/dc/dcmitype/StillImage" />
        <dc:title></dc:title>
      </cc:Work>
    </rdf:RDF>
  </metadata>
  <g
     inkscape:label="Layer 1"
     inkscape:groupmode="layer"
     id="layer1"
     transform="translate(-34.834822,-10.595196)">
    <g
       transform="matrix(0.01609452,-1.8183034e-4,-0.00132001,0.01362797,40.60173,17.339455)"
       id="g4"
       style="fill:#808080">
      <path
         inkscape:connector-curvature="0"
         d="M -798.16,-813.06 35.39,51.91 h -707.38 l -135.82,-512.7 h -267.14 v 397.37 h -284.53 l 304.69,288.32 189.36,518.99 h 345.99 L -583.08,397.9 h 860.06 l 543.56,1277.6 h 341.07 L 964.04,397.9 l 1100.6,-50 c 230.4,-10.46 -10.9,-295.99 -241.6,-295.99 h -1038 l -1179.5,-864.97 z"
         transform="scale(0.26458)"
         id="path2"
         style="fill:#808080" />
    </g>
    <ellipse
       style="fill:#0000ff;stroke-width:0.15742612"
       id="path14"
       cx="42.660561"
       cy="18.28698"
       rx="1.1575382"
       ry="1.0472641" />
    <path
       style="color:#000000;font-style:normal;font-variant:normal;font-weight:normal;font-stretch:normal;font-size:medium;line-height:normal;font-family:sans-serif;font-variant-ligatures:normal;font-variant-position:normal;font-variant-caps:normal;font-variant-numeric:normal;font-variant-alternates:normal;font-feature-settings:normal;text-indent:0;text-align:start;text-decoration:none;text-decoration-line:none;text-decoration-style:solid;text-decoration-color:#000000;letter-spacing:normal;word-spacing:normal;text-transform:none;writing-mode:lr-tb;direction:ltr;text-orientation:mixed;dominant-baseline:auto;baseline-shift:baseline;text-anchor:start;white-space:normal;shape-padding:0;clip-rule:nonzero;display:inline;overflow:visible;visibility:visible;opacity:1;isolation:auto;mix-blend-mode:normal;color-interpolation:sRGB;color-interpolation-filters:linearRGB;solid-color:#000000;solid-opacity:1;vector-effect:none;fill:#000000;fill-opacity:1;fill-rule:nonzero;stroke:none;stroke-width:0.45719999px;stroke-linecap:butt;stroke-linejoin:miter;stroke-miterlimit:4;stroke-dasharray:none;stroke-dashoffset:0;stroke-opacity:1;color-rendering:auto;image-rendering:auto;shape-rendering:auto;text-rendering:auto;enable-background:accumulate"
       d="m 148.16554,19.507455 -7.51611,2.345625 -8.40377,3.044251 -10.78648,4.458375 -10.39164,4.208625 -9.08887,4.343625 0.19913,0.41175 9.07538,-4.336874 10.37813,-4.201876 10.77973,-4.458375 8.38689,-3.037501 7.506,-2.342248 z"
       id="path54"
       inkscape:connector-curvature="0" />
    <path
       style="color:#000000;font-style:normal;font-variant:normal;font-weight:normal;font-stretch:normal;font-size:medium;line-height:normal;font-family:sans-serif;font-variant-ligatures:normal;font-variant-position:normal;font-variant-caps:normal;font-variant-numeric:normal;font-variant-alternates:normal;font-feature-settings:normal;text-indent:0;text-align:start;text-decoration:none;text-decoration-line:none;text-decoration-style:solid;text-decoration-color:#000000;letter-spacing:normal;word-spacing:normal;text-transform:none;writing-mode:lr-tb;direction:ltr;text-orientation:mixed;dominant-baseline:auto;baseline-shift:baseline;text-anchor:start;white-space:normal;shape-padding:0;clip-rule:nonzero;display:inline;overflow:visible;visibility:visible;opacity:1;isolation:auto;mix-blend-mode:normal;color-interpolation:sRGB;color-interpolation-filters:linearRGB;solid-color:#000000;solid-opacity:1;vector-effect:none;fill:#000000;fill-opacity:1;fill-rule:nonzero;stroke:none;stroke-width:0.45719999px;stroke-linecap:butt;stroke-linejoin:miter;stroke-miterlimit:4;stroke-dasharray:none;stroke-dashoffset:0;stroke-opacity:1;color-rendering:auto;image-rendering:auto;shape-rendering:auto;text-rendering:auto;enable-background:accumulate"
       d="m 98.731925,33.128956 -0.357749,0.2835 3.607884,4.539376 -0.0439,0.09113 0.23962,0.121493 0.28013,-0.347626 z"
       id="path56"
       inkscape:connector-curvature="0" />
    <path
       style="color:#000000;font-style:normal;font-variant:normal;font-weight:normal;font-stretch:normal;font-size:medium;line-height:normal;font-family:sans-serif;font-variant-ligatures:normal;font-variant-position:normal;font-variant-caps:normal;font-variant-numeric:normal;font-variant-alternates:normal;font-feature-settings:normal;text-indent:0;text-align:start;text-decoration:none;text-decoration-line:none;text-decoration-style:solid;text-decoration-color:#000000;letter-spacing:normal;word-spacing:normal;text-transform:none;writing-mode:lr-tb;direction:ltr;text-orientation:mixed;dominant-baseline:auto;baseline-shift:baseline;text-anchor:start;white-space:normal;shape-padding:0;clip-rule:nonzero;display:inline;overflow:visible;visibility:visible;opacity:1;isolation:auto;mix-blend-mode:normal;color-interpolation:sRGB;color-interpolation-filters:linearRGB;solid-color:#000000;solid-opacity:1;vector-effect:none;fill:#000000;fill-opacity:1;fill-rule:nonzero;stroke:none;stroke-width:0.45719999px;stroke-linecap:butt;stroke-linejoin:miter;stroke-miterlimit:4;stroke-dasharray:none;stroke-dashoffset:0;stroke-opacity:1;color-rendering:auto;image-rendering:auto;shape-rendering:auto;text-rendering:auto;enable-background:accumulate"
       d="m 144.60154,15.055832 -0.35775,0.283499 3.60787,4.539375 -0.0473,0.09113 0.243,0.121493 0.28013,-0.347627 z"
       id="path56-3"
       inkscape:connector-curvature="0" />
    <path
       style="color:#000000;font-style:normal;font-variant:normal;font-weight:normal;font-stretch:normal;font-size:medium;line-height:normal;font-family:sans-serif;font-variant-ligatures:normal;font-variant-position:normal;font-variant-caps:normal;font-variant-numeric:normal;font-variant-alternates:normal;font-feature-settings:normal;text-indent:0;text-align:start;text-decoration:none;text-decoration-line:none;text-decoration-style:solid;text-decoration-color:#000000;letter-spacing:normal;word-spacing:normal;text-transform:none;writing-mode:lr-tb;direction:ltr;text-orientation:mixed;dominant-baseline:auto;baseline-shift:baseline;text-anchor:start;white-space:normal;shape-padding:0;clip-rule:nonzero;display:inline;overflow:visible;visibility:visible;opacity:1;isolation:auto;mix-blend-mode:normal;color-interpolation:sRGB;color-interpolation-filters:linearRGB;solid-color:#000000;solid-opacity:1;vector-effect:none;fill:#000000;fill-opacity:1;fill-rule:nonzero;stroke:none;stroke-width:0.45719999px;stroke-linecap:butt;stroke-linejoin:miter;stroke-miterlimit:4;stroke-dasharray:none;stroke-dashoffset:0;stroke-opacity:1;color-rendering:auto;image-rendering:auto;shape-rendering:auto;text-rendering:auto;enable-background:accumulate"
       d="m 144.59817,14.910706 -7.51613,2.349 -8.40374,3.04425 -10.78651,4.458375 -10.39162,4.208625 -9.088869,4.343625 0.199125,0.41175 9.075364,-4.336876 10.37814,-4.201874 10.77973,-4.458375 8.38352,-3.0375 7.506,-2.342251 z"
       id="path54-8"
       inkscape:connector-curvature="0" />
    <path
       style="fill:#4d4d4d;stroke-width:0.11027402"
       d="m 100.73119,35.555378 -1.609999,-2.01638 4.318189,-2.060435 c 3.0527,-1.456603 5.78673,-2.654289 9.32919,-4.086811 2.75603,-1.114503 7.54177,-3.071999 10.63496,-4.349988 6.45305,-2.666162 12.09696,-4.745535 17.3076,-6.37658 1.99849,-0.625574 3.64047,-1.126702 3.64884,-1.113619 0.008,0.0131 0.69625,0.883931 1.52866,1.935215 0.83241,1.05128 1.53638,1.971112 1.56437,2.044063 0.0343,0.08914 -1.04405,0.473371 -3.28763,1.171519 -4.67949,1.456142 -11.46642,3.9431 -16.84711,6.17334 -2.517,1.04327 -7.20641,2.96368 -10.42091,4.267572 -4.32119,1.752804 -6.952,2.899947 -10.09361,4.401232 -2.337,1.116784 -4.29712,2.029781 -4.35582,2.028884 -0.0587,-9.14e-4 -0.83123,-0.909 -1.71673,-2.018012 z"
       id="path102"
       inkscape:connector-curvature="0" />
    <path
       style="fill:#f2f2f2;stroke-width:0.01426271"
       d="m 100.56227,34.408621 -0.18108,-0.29991 0.48567,-0.306463 c 0.34334,-0.21665 0.65083,-0.39479 1.04926,-0.607859 0.30997,-0.165767 0.84823,-0.456922 1.19612,-0.647004 0.72578,-0.396557 1.36055,-0.705835 1.9466,-0.948432 0.22476,-0.09305 0.40944,-0.167583 0.41038,-0.165629 7.2e-4,0.0019 0.0784,0.131472 0.17194,0.287839 0.0936,0.156367 0.1728,0.293176 0.17595,0.304027 0.002,0.0131 -0.11748,0.07042 -0.36972,0.174251 -0.52632,0.216582 -1.28965,0.586483 -1.89481,0.918202 -0.28308,0.155174 -0.81052,0.440808 -1.17204,0.634745 -0.48601,0.260706 -0.7819,0.431329 -1.13524,0.654626 -0.26284,0.166112 -0.4833,0.301901 -0.4899,0.30177 -0.007,-1.37e-4 -0.0935,-0.135216 -0.19308,-0.300152 z"
       id="path102-0"
       inkscape:connector-curvature="0" />
    <path
       style="fill:#f2f2f2;stroke-width:0.01426271"
       d="m 101.4996,35.290807 -0.18108,-0.29991 0.48567,-0.306463 c 0.34335,-0.216652 0.65083,-0.394791 1.04926,-0.607859 0.30997,-0.165767 0.84822,-0.456923 1.19612,-0.647004 0.72577,-0.396557 1.36056,-0.705837 1.94658,-0.948433 0.22479,-0.09305 0.40945,-0.167582 0.41039,-0.165629 7.3e-4,0.0019 0.0784,0.131472 0.17194,0.287839 0.0936,0.156367 0.1728,0.293177 0.17596,0.304028 0.002,0.0131 -0.11748,0.07042 -0.36972,0.174251 -0.52632,0.216581 -1.28964,0.586483 -1.8948,0.918202 -0.2831,0.155174 -0.81051,0.440807 -1.17206,0.634745 -0.486,0.260706 -0.78188,0.431328 -1.13522,0.654626 -0.26285,0.166112 -0.4833,0.301901 -0.4899,0.301769 -0.007,-1.37e-4 -0.0935,-0.135216 -0.1931,-0.300151 z"
       id="path102-0-2"
       inkscape:connector-curvature="0" />
    <path
       style="fill:#f2f2f2;stroke-width:0.01426271"
       d="m 102.3818,36.283274 -0.18108,-0.29991 0.48568,-0.306466 c 0.34333,-0.216649 0.65083,-0.394789 1.04925,-0.607858 0.30997,-0.165767 0.84822,-0.456921 1.19613,-0.647002 0.72577,-0.396558 1.36053,-0.705836 1.94658,-0.948434 0.22478,-0.09305 0.40944,-0.167582 0.41037,-0.165629 7.2e-4,0.0019 0.0784,0.131472 0.17194,0.28784 0.0936,0.156366 0.1728,0.293177 0.17595,0.304029 0.002,0.0131 -0.11748,0.07042 -0.36972,0.174248 -0.5263,0.216583 -1.28961,0.586483 -1.89477,0.918203 -0.28311,0.155174 -0.81052,0.440807 -1.17207,0.634745 -0.486,0.260706 -0.78188,0.431329 -1.13522,0.654627 -0.26285,0.166113 -0.4833,0.3019 -0.48991,0.301769 -0.007,-1.37e-4 -0.0935,-0.135216 -0.19308,-0.300152 z"
       id="path102-0-2-4"
       inkscape:connector-curvature="0" />
    <path
       style="fill:#f2f2f2;stroke-width:0.01426271"
       d="m 139.1626,18.953667 -0.14498,-0.318893 0.51796,-0.24805 c 0.36615,-0.175358 0.69224,-0.316625 1.11267,-0.482034 0.32711,-0.128679 0.89553,-0.355438 1.26311,-0.503877 0.76688,-0.309684 1.43324,-0.543237 2.04348,-0.716211 0.23406,-0.06636 0.42613,-0.118956 0.42683,-0.116904 5e-4,0.0019 0.0625,0.139651 0.13737,0.305841 0.0749,0.166182 0.13752,0.311243 0.1394,0.322389 10e-4,0.01354 -0.125,0.05632 -0.38745,0.13019 -0.54788,0.154069 -1.34898,0.432913 -1.98854,0.69219 -0.29917,0.121291 -0.85617,0.343807 -1.23777,0.494492 -0.51297,0.202566 -0.82664,0.337713 -1.2035,0.518513 -0.28034,0.134511 -0.51505,0.243796 -0.5216,0.242901 -0.007,-8.98e-4 -0.0772,-0.145152 -0.1569,-0.320525 z"
       id="path102-0-3"
       inkscape:connector-curvature="0" />
    <path
       style="fill:#f2f2f2;stroke-width:0.01426271"
       d="m 139.99126,19.938634 -0.14515,-0.318892 0.51796,-0.248055 c 0.36614,-0.175356 0.69223,-0.316621 1.11267,-0.482033 0.32711,-0.128678 0.8955,-0.355435 1.26312,-0.503875 0.76688,-0.309684 1.43324,-0.543236 2.04347,-0.716213 0.23405,-0.06636 0.42612,-0.118956 0.42682,-0.116904 5e-4,0.0019 0.0625,0.139652 0.13737,0.305843 0.0749,0.166182 0.13752,0.311242 0.1394,0.322387 0.001,0.01354 -0.125,0.05632 -0.38744,0.130191 -0.5479,0.154068 -1.34896,0.432917 -1.98854,0.692193 -0.29917,0.121292 -0.85616,0.343808 -1.23776,0.494493 -0.51298,0.202567 -0.82665,0.337712 -1.20352,0.518513 -0.28033,0.134496 -0.51504,0.243794 -0.52159,0.2429 -0.007,-8.99e-4 -0.0772,-0.145152 -0.1569,-0.320525 z"
       id="path102-0-2-9"
       inkscape:connector-curvature="0" />
    <path
       style="fill:#f2f2f2;stroke-width:0.01426271"
       d="m 140.75239,21.02674 -0.14515,-0.318889 0.51793,-0.248054 c 0.36615,-0.175359 0.69224,-0.316623 1.1127,-0.482033 0.32711,-0.128678 0.89549,-0.355439 1.26309,-0.503876 0.76689,-0.309684 1.43325,-0.543239 2.04346,-0.716213 0.23406,-0.06636 0.42613,-0.118956 0.42684,-0.116904 5e-4,0.0019 0.0625,0.139651 0.13738,0.305841 0.0749,0.166182 0.13752,0.311244 0.13939,0.32239 0.001,0.01354 -0.12499,0.05632 -0.38746,0.13019 -0.54787,0.15407 -1.34894,0.432918 -1.98851,0.692194 -0.29918,0.121291 -0.85618,0.343805 -1.23776,0.494494 -0.51299,0.202566 -0.82666,0.337711 -1.20353,0.51851 -0.28033,0.13451 -0.51505,0.243797 -0.52159,0.242899 -0.007,-8.96e-4 -0.0772,-0.145152 -0.1569,-0.320523 z"
       id="path102-0-2-4-0"
       inkscape:connector-curvature="0" />
    <ellipse
       style="fill:#ff0000;stroke-width:0.1189339"
       id="path10"
       cx="142.62091"
       cy="18.596197"
       rx="1.3266605"
       ry="1.3708698" />
    <ellipse
       style="fill:#ff0000;stroke-width:0.1189339"
       id="path10-5"
       cx="104.03654"
       cy="34.063492"
       rx="1.3266605"
       ry="1.3708698" />
    <path
       style="fill:none;stroke:#ff0000;stroke-width:0.45791999;stroke-linecap:butt;stroke-linejoin:miter;stroke-miterlimit:4;stroke-dasharray:1.37376, 1.37376;stroke-dashoffset:0;stroke-opacity:1"
       d="m 142.74271,18.514857 -7.49865,2.646576 -6.28561,2.315755 -8.60137,3.308222 -7.05755,2.867124 -6.61643,2.867122 -2.75685,1.323288 -12.350692,6.175346 -12.681513,7.167813 -13.894525,8.82192 -12.571237,8.932198 -2.315754,1.874657"
       id="path3907"
       inkscape:connector-curvature="0" />
    <path
       style="fill:#0000ff;stroke:#000096;stroke-width:0.45791999;stroke-linecap:butt;stroke-linejoin:miter;stroke-miterlimit:4;stroke-dasharray:0.91583994, 0.91583994;stroke-dashoffset:0;stroke-opacity:1"
       d="m 42.724169,18.29431 v 16.100003 0"
       id="path4714"
       inkscape:connector-curvature="0" />
    <ellipse
       style="fill:#1a1a1a;stroke-width:0.15742612"
       id="path14-2"
       cx="42.944717"
       cy="34.614864"
       rx="1.1575382"
       ry="1.0472641" />
    <path
       style="fill:none;stroke:#000000;stroke-width:0.45719999;stroke-linecap:butt;stroke-linejoin:miter;stroke-miterlimit:4;stroke-dasharray:3.65759978, 0.91439994, 0.45719998, 0.91439994;stroke-dashoffset:0;stroke-opacity:1"
       d="m 42.944717,34.614864 5.293155,3.197949 4.741781,3.418494 4.741782,3.969861 4.962329,5.072607 3.639043,4.521232"
       id="path4731"
       inkscape:connector-curvature="0" />
    <ellipse
       style="fill:#1a1a1a;stroke-width:0.15742612"
       id="path14-2-7"
       cx="66.403015"
       cy="55.077374"
       rx="1.1575382"
       ry="1.0472641" />
    <text
       xml:space="preserve"
       style="font-style:normal;font-weight:normal;font-size:7.31519985px;line-height:1.25;font-family:sans-serif;letter-spacing:0px;word-spacing:0px;fill:#000000;fill-opacity:1;stroke:none;stroke-width:0.45719999"
       x="66.645493"
       y="61.866493"
       id="text4758"><tspan
         sodipodi:role="line"
         id="tspan4756"
         x="66.645493"
         y="61.866493"
         style="font-style:normal;font-variant:normal;font-weight:normal;font-stretch:normal;font-size:6.70560026px;font-family:Palatino;-inkscape-font-specification:Palatino;stroke-width:0.45719999">X</tspan></text>
    <text
       xml:space="preserve"
       style="font-style:normal;font-weight:normal;font-size:7.31519985px;line-height:1.25;font-family:sans-serif;letter-spacing:0px;word-spacing:0px;fill:#000000;fill-opacity:1;stroke:none;stroke-width:0.45719999"
       x="35.488289"
       y="38.225811"
       id="text4762"><tspan
         sodipodi:role="line"
         id="tspan4760"
         x="35.488289"
         y="38.225811"
         style="font-style:normal;font-variant:normal;font-weight:normal;font-stretch:normal;font-family:Palatino;-inkscape-font-specification:Palatino;stroke-width:0.45719999">G</tspan></text>
    <text
       xml:space="preserve"
       style="font-style:normal;font-weight:normal;font-size:7.31519985px;line-height:1.25;font-family:sans-serif;letter-spacing:0px;word-spacing:0px;fill:#000000;fill-opacity:1;stroke:none;stroke-width:0.45719999"
       x="42.311481"
       y="15.677974"
       id="text4766"><tspan
         sodipodi:role="line"
         id="tspan4764"
         x="42.311481"
         y="15.677974"
         style="font-style:normal;font-variant:normal;font-weight:normal;font-stretch:normal;font-family:Palatino;-inkscape-font-specification:Palatino;stroke-width:0.45719999">B</tspan></text>
    <text
       xml:space="preserve"
       style="font-style:normal;font-weight:normal;font-size:7.31519985px;line-height:1.25;font-family:sans-serif;letter-spacing:0px;word-spacing:0px;fill:#000000;fill-opacity:1;stroke:none;stroke-width:0.45719999"
       x="104.10381"
       y="42.582138"
       id="text4762-9"><tspan
         sodipodi:role="line"
         id="tspan4760-1"
         x="104.10381"
         y="42.582138"
         style="font-style:normal;font-variant:normal;font-weight:normal;font-stretch:normal;font-family:Palatino;-inkscape-font-specification:Palatino;stroke-width:0.45719999">A<tspan
   style="font-size:4.75487947px;baseline-shift:sub;stroke-width:0.45719999"
   id="tspan4804">1</tspan></tspan></text>
    <text
       xml:space="preserve"
       style="font-style:normal;font-weight:normal;font-size:7.31519985px;line-height:1.25;font-family:sans-serif;letter-spacing:0px;word-spacing:0px;fill:#000000;fill-opacity:1;stroke:none;stroke-width:0.45719999"
       x="142.53506"
       y="27.549099"
       id="text4762-9-1"><tspan
         sodipodi:role="line"
         id="tspan4760-1-4"
         x="142.53506"
         y="27.549099"
         style="font-style:normal;font-variant:normal;font-weight:normal;font-stretch:normal;font-family:Palatino;-inkscape-font-specification:Palatino;stroke-width:0.45719999">A<tspan
   style="font-size:4.75487947px;baseline-shift:sub;stroke-width:0.45719999"
   id="tspan4806">2</tspan></tspan></text>
  </g>
</svg>
