<?xml version="1.0" encoding="UTF-8" standalone="no"?>
<!-- Created with Inkscape (http://www.inkscape.org/) -->

<svg
   xmlns:dc="http://purl.org/dc/elements/1.1/"
   xmlns:cc="http://creativecommons.org/ns#"
   xmlns:rdf="http://www.w3.org/1999/02/22-rdf-syntax-ns#"
   xmlns:svg="http://www.w3.org/2000/svg"
   xmlns="http://www.w3.org/2000/svg"
   xmlns:sodipodi="http://sodipodi.sourceforge.net/DTD/sodipodi-0.dtd"
   xmlns:inkscape="http://www.inkscape.org/namespaces/inkscape"
   width="748.79565mm"
   height="173.00613mm"
   viewBox="0 0 748.79565 173.00613"
   version="1.1"
   id="svg8"
   inkscape:version="0.92.3 (2405546, 2018-03-11)"
   sodipodi:docname="logo-wide.svg">
  <defs
     id="defs2">
    <inkscape:perspective
       id="perspective2968"
       inkscape:persp3d-origin="372.04724 : 350.78737 : 1"
       inkscape:vp_z="744.09448 : 526.18106 : 1"
       inkscape:vp_y="0 : 999.99993 : 0"
       inkscape:vp_x="0 : 526.18106 : 1"
       sodipodi:type="inkscape:persp3d" />
    <inkscape:perspective
       sodipodi:type="inkscape:persp3d"
       inkscape:vp_x="0 : 0.49999997 : 1"
       inkscape:vp_y="0 : 999.99993 : 0"
       inkscape:vp_z="1 : 0.49999997 : 1"
       inkscape:persp3d-origin="0.5 : 0.33333331 : 1"
       id="perspective2915" />
    <clipPath
       id="clipPath152"
       clipPathUnits="userSpaceOnUse">
      <path
         id="path154"
         d="M 0,0 H 841.89 V 595.276 H 0 Z"
         inkscape:connector-curvature="0" />
    </clipPath>
    <clipPath
       id="clipPath168"
       clipPathUnits="userSpaceOnUse">
      <path
         id="path170"
         d="M 0,0 H 841.89 V 595.276 H 0 Z"
         inkscape:connector-curvature="0" />
    </clipPath>
    <clipPath
       id="clipPath204"
       clipPathUnits="userSpaceOnUse">
      <path
         id="path206"
         d="M 0,0 H 841.89 V 595.276 H 0 Z"
         inkscape:connector-curvature="0" />
    </clipPath>
  </defs>
  <sodipodi:namedview
     id="base"
     pagecolor="#ffffff"
     bordercolor="#666666"
     borderopacity="1.0"
     inkscape:pageopacity="0.0"
     inkscape:pageshadow="2"
     inkscape:zoom="0.35"
     inkscape:cx="1267.2739"
     inkscape:cy="267.10584"
     inkscape:document-units="mm"
     inkscape:current-layer="g3677"
     showgrid="false"
     inkscape:window-width="1920"
     inkscape:window-height="1148"
     inkscape:window-x="-8"
     inkscape:window-y="-8"
     inkscape:window-maximized="1" />
  <metadata
     id="metadata5">
    <rdf:RDF>
      <cc:Work
         rdf:about="">
        <dc:format>image/svg+xml</dc:format>
        <dc:type
           rdf:resource="http://purl.org/dc/dcmitype/StillImage" />
        <dc:title></dc:title>
      </cc:Work>
    </rdf:RDF>
  </metadata>
  <g
     inkscape:label="Layer 1"
     inkscape:groupmode="layer"
     id="layer1"
     transform="translate(269.37246,100.87084)">
    <g
       id="g3677"
       transform="matrix(1.6883951,0,0,-1.6883951,-468.00927,384.38928)">
      <g
         transform="translate(224.0294,266.0411)"
         id="g140">
        <path
           inkscape:connector-curvature="0"
           id="path142"
           style="fill:#00426c;fill-opacity:1;fill-rule:nonzero;stroke:none"
           d="m 0,0 c -9.297,12.939 -24.477,21.368 -41.627,21.368 -28.287,0 -51.22,-22.933 -51.22,-51.22 0,-3.596 0.371,-7.1 1.075,-10.484 l 51.499,22.837 h -28.169 c 4.695,10.069 14.905,17.056 26.747,17.056 8.133,0 15.499,-3.293 20.836,-8.612 z" />
      </g>
      <g
         transform="translate(234.5233,268.5568)"
         id="g144">
        <path
           inkscape:connector-curvature="0"
           id="path146"
           style="fill:#008dbb;fill-opacity:1;fill-rule:nonzero;stroke:none"
           d="m 0,0 -51.447,-52.429 h -65.428 z" />
      </g>
      <g
         id="g148">
        <g
           clip-path="url(#clipPath152)"
           id="g150">
          <g
             transform="translate(182.2162,206.6893)"
             id="g156">
            <path
               inkscape:connector-curvature="0"
               id="path158"
               style="fill:#00426c;fill-opacity:1;fill-rule:nonzero;stroke:none"
               d="m 0,0 c -7.22,0 -13.837,2.525 -19.013,6.731 h -27.512 c 8.549,-16.886 26.203,-28.479 46.593,-28.479 20.986,0 39.086,12.215 47.331,29.901 H 20.657 C 15.276,3.103 8.005,0 0,0" />
          </g>
        </g>
      </g>
      <g
         id="g174"
         transform="matrix(2.688,0,0,2.688,-430.26381,-384.17062)">
        <g
           id="g160"
           transform="translate(254.30324,228.35607)">
          <path
             d="m 0,0 h -4.68 v -3.648 h 5.233 v -1.861 h -7.5 V 6.91 H 0.276 V 5.049 H -4.68 V 1.843 H 0 Z"
             style="fill:#00426c;fill-opacity:1;fill-rule:nonzero;stroke:none"
             id="path162"
             inkscape:connector-curvature="0" />
        </g>
        <g
           transform="translate(125.81334,62.235066)"
           id="g164">
          <g
             id="g166"
             clip-path="url(#clipPath168)">
            <g
               id="g172"
               transform="translate(133.2779,173.031)">
              <path
                 d="m 0,0 v -7.241 c 0,-2.433 1.014,-3.557 2.543,-3.557 1.64,0 2.617,1.124 2.617,3.557 V 0 h 2.266 v -7.094 c 0,-3.833 -1.972,-5.528 -4.957,-5.528 -2.875,0 -4.736,1.603 -4.736,5.51 V 0 Z"
                 style="fill:#00426c;fill-opacity:1;fill-rule:nonzero;stroke:none"
                 id="path174"
                 inkscape:connector-curvature="0" />
            </g>
            <g
               id="g176"
               transform="translate(143.2983,172.847)">
              <path
                 d="m 0,0 c 0.866,0.166 2.119,0.276 3.427,0.276 1.788,0 2.986,-0.294 3.833,-0.995 0.682,-0.571 1.069,-1.437 1.069,-2.506 0,-1.603 -1.088,-2.69 -2.267,-3.095 V -6.376 C 6.965,-6.708 7.5,-7.573 7.794,-8.771 8.2,-10.319 8.532,-11.756 8.771,-12.235 H 6.449 c -0.184,0.368 -0.497,1.381 -0.829,2.93 -0.368,1.621 -0.94,2.137 -2.229,2.174 H 2.248 v -5.104 H 0 Z m 2.248,-5.473 h 1.345 c 1.53,0 2.469,0.811 2.469,2.046 0,1.345 -0.939,1.989 -2.414,1.989 -0.718,0 -1.179,-0.055 -1.4,-0.11 z"
                 style="fill:#00426c;fill-opacity:1;fill-rule:nonzero;stroke:none"
                 id="path178"
                 inkscape:connector-curvature="0" />
            </g>
            <g
               id="g180"
               transform="translate(158.8656,160.4093)">
              <path
                 d="m 0,0 c -3.519,0 -5.731,2.69 -5.731,6.32 0,3.796 2.414,6.504 5.915,6.504 3.612,0 5.749,-2.745 5.749,-6.283 C 5.933,2.377 3.409,0 0.018,0 Z m 0.111,1.824 c 2.192,0 3.427,2.027 3.427,4.625 0,2.34 -1.161,4.551 -3.427,4.551 -2.267,0 -3.446,-2.155 -3.446,-4.625 0,-2.469 1.253,-4.551 3.427,-4.551 z"
                 style="fill:#00426c;fill-opacity:1;fill-rule:nonzero;stroke:none"
                 id="path182"
                 inkscape:connector-curvature="0" />
            </g>
            <g
               id="g184"
               transform="translate(175.6478,160.9805)">
              <path
                 d="m 0,0 c -0.534,-0.258 -1.714,-0.553 -3.224,-0.553 -3.944,0 -6.339,2.469 -6.339,6.246 0,4.091 2.856,6.542 6.652,6.542 1.492,0 2.543,-0.295 3.003,-0.535 L -0.387,9.895 c -0.589,0.258 -1.419,0.479 -2.432,0.479 -2.525,0 -4.349,-1.585 -4.349,-4.57 0,-2.727 1.585,-4.459 4.331,-4.459 0.902,0 1.861,0.184 2.469,0.442 z"
                 style="fill:#00426c;fill-opacity:1;fill-rule:nonzero;stroke:none"
                 id="path186"
                 inkscape:connector-curvature="0" />
            </g>
            <g
               id="g188"
               transform="translate(182.1862,160.4093)">
              <path
                 d="m 0,0 c -3.519,0 -5.731,2.69 -5.731,6.32 0,3.796 2.414,6.504 5.915,6.504 3.612,0 5.749,-2.745 5.749,-6.283 C 5.933,2.377 3.409,0 0.019,0 Z m 0.111,1.824 c 2.192,0 3.427,2.027 3.427,4.625 0,2.34 -1.161,4.551 -3.427,4.551 -2.267,0 -3.446,-2.155 -3.446,-4.625 0,-2.469 1.253,-4.551 3.427,-4.551 z"
                 style="fill:#00426c;fill-opacity:1;fill-rule:nonzero;stroke:none"
                 id="path190"
                 inkscape:connector-curvature="0" />
            </g>
            <g
               id="g192"
               transform="translate(190.0507,160.6116)">
              <path
                 d="M 0,0 V 12.419 H 2.599 L 5.804,7.094 C 6.615,5.713 7.353,4.275 7.924,2.93 L 7.961,2.948 C 7.794,4.588 7.757,6.191 7.757,8.089 v 4.33 H 9.858 V 0 H 7.5 L 4.256,5.473 C 3.464,6.837 2.654,8.347 2.046,9.748 L 1.972,9.729 C 2.064,8.126 2.101,6.486 2.101,4.441 V 0 Z"
                 style="fill:#00426c;fill-opacity:1;fill-rule:nonzero;stroke:none"
                 id="path194"
                 inkscape:connector-curvature="0" />
            </g>
          </g>
        </g>
        <g
           id="g196"
           transform="translate(330.71234,233.36837)">
          <path
             d="M 0,0 H -3.538 V 1.898 H 5.841 V 0 H 2.267 V -10.522 H 0 Z"
             style="fill:#00426c;fill-opacity:1;fill-rule:nonzero;stroke:none"
             id="path198"
             inkscape:connector-curvature="0" />
        </g>
        <g
           transform="translate(125.81334,62.235066)"
           id="g200">
          <g
             id="g202"
             clip-path="url(#clipPath204)">
            <g
               id="g208"
               transform="translate(212.1927,172.847)">
              <path
                 d="m 0,0 c 0.866,0.166 2.119,0.276 3.427,0.276 1.788,0 2.986,-0.294 3.833,-0.995 0.682,-0.571 1.069,-1.437 1.069,-2.506 0,-1.603 -1.087,-2.69 -2.266,-3.095 V -6.376 C 6.965,-6.708 7.5,-7.573 7.794,-8.771 8.2,-10.319 8.532,-11.756 8.771,-12.235 H 6.449 c -0.184,0.368 -0.497,1.381 -0.829,2.93 -0.368,1.621 -0.94,2.137 -2.229,2.174 H 2.248 v -5.104 H 0 Z m 2.248,-5.473 h 1.345 c 1.53,0 2.47,0.811 2.47,2.046 0,1.345 -0.94,1.989 -2.415,1.989 -0.718,0 -1.179,-0.055 -1.4,-0.11 z"
                 style="fill:#00426c;fill-opacity:1;fill-rule:nonzero;stroke:none"
                 id="path210"
                 inkscape:connector-curvature="0" />
            </g>
            <g
               id="g212"
               transform="translate(227.76,160.4093)">
              <path
                 d="m 0,0 c -3.519,0 -5.731,2.69 -5.731,6.32 0,3.796 2.414,6.504 5.915,6.504 3.612,0 5.749,-2.745 5.749,-6.283 C 5.933,2.377 3.409,0 0.018,0 Z m 0.11,1.824 c 2.193,0 3.428,2.027 3.428,4.625 C 3.538,8.789 2.377,11 0.11,11 -2.156,11 -3.335,8.845 -3.335,6.375 c 0,-2.469 1.253,-4.551 3.427,-4.551 z"
                 style="fill:#00426c;fill-opacity:1;fill-rule:nonzero;stroke:none"
                 id="path214"
                 inkscape:connector-curvature="0" />
            </g>
          </g>
        </g>
        <g
           id="g216"
           transform="translate(361.45624,235.26607)">
          <path
             d="m 0,0 h 2.267 v -10.521 h 5.104 v -1.898 H 0 Z"
             style="fill:#00426c;fill-opacity:1;fill-rule:nonzero;stroke:none"
             id="path218"
             inkscape:connector-curvature="0" />
        </g>
      </g>
    </g>
  </g>
</svg>
